<svg xmlns="http://www.w3.org/2000/svg" viewBox="22.68 60.45 503.73 95.22">
<path fill="#2c2e35" d="M500.98 87.41 C482.58 87.41,471.37 96.38,471.37 110.54 C471.37 133.66,503.58 127.88,503.58 134.61 C503.58 136.62,501.69 138.27,497.21 138.27 C489.30 138.27,479.15 135.55,471.01 130.95 L471.01 149.12 C475.50 152.19,484.70 154.67,494.49 154.67 C517.98 154.67,525.41 144.52,525.41 130.95 C525.41 108.29,493.20 113.37,493.20 107.23 C493.20 105.46,495.91 104.28,500.87 104.28 C507.95 104.28,512.78 105.46,521.40 108.29 L521.40 91.07 C515.38 88.59,509.72 87.41,500.98 87.41 M465.70 91.42 L447.06 91.42 L447.06 71.01 L423.93 76.79 L423.93 91.42 L414.73 91.42 L414.73 108.88 L423.93 108.88 L423.93 128.47 C423.93 149.83,436.44 154.67,448.36 154.67 C455.55 154.67,462.16 153.13,465.47 151.37 L465.47 133.66 C463.11 134.96,459.09 135.91,454.73 135.91 C449.42 135.91,447.06 133.43,447.06 127.88 L447.06 108.88 L465.70 108.88 Z M383.10 87.41 C370.01 87.41,357.73 91.30,348.77 97.67 L348.77 153.49 L371.89 153.49 L371.89 108.65 C374.84 106.88,377.68 105.93,380.74 105.93 C386.76 105.93,389.24 109.95,389.24 116.08 L389.24 153.49 L412.37 153.49 L412.37 116.79 C412.37 100.98,405.76 87.41,383.10 87.41 M316.55 103.22 C322.10 103.22,325.87 106.41,326.70 112.78 L305.46 112.78 C306.88 105.46,310.77 103.22,316.55 103.22 M316.43 87.41 C295.08 87.41,282.57 102.16,282.57 119.15 C282.57 139.92,295.67 154.67,319.86 154.67 C329.53 154.67,336.97 152.66,342.28 149.00 L342.28 131.07 C335.90 134.96,330.59 136.73,322.45 136.73 C313.25 136.73,307.82 133.43,305.81 126.47 L345.70 126.47 C346.17 123.28,346.41 121.04,346.41 117.03 C346.41 99.09,333.31 87.41,316.43 87.41 M282.92 91.42 L264.28 91.42 L264.28 71.01 L241.15 76.79 L241.15 91.42 L231.95 91.42 L231.95 108.88 L241.15 108.88 L241.15 128.47 C241.15 149.83,253.66 154.67,265.58 154.67 C272.77 154.67,279.38 153.13,282.69 151.37 L282.69 133.66 C280.33 134.96,276.31 135.91,271.95 135.91 C266.64 135.91,264.28 133.43,264.28 127.88 L264.28 108.88 L282.92 108.88 Z M200.91 87.41 C187.82 87.41,175.54 91.30,166.58 97.67 L166.58 153.49 L189.70 153.49 L189.70 108.65 C192.65 106.88,195.49 105.93,198.55 105.93 C204.57 105.93,207.05 109.95,207.05 116.08 L207.05 153.49 L230.18 153.49 L230.18 116.79 C230.18 100.98,223.57 87.41,200.91 87.41 M120.67 121.04 C120.67 110.54,122.92 105.11,130.70 105.11 C138.49 105.11,140.62 110.54,140.62 121.04 C140.62 131.54,138.49 136.97,130.70 136.97 C122.92 136.97,120.67 131.54,120.67 121.04 M130.70 87.41 C107.93 87.41,97.07 102.28,97.07 121.04 C97.07 139.80,107.93 154.67,130.70 154.67 C153.24 154.67,164.22 139.80,164.22 121.04 C164.22 102.28,153.24 87.41,130.70 87.41 M23.68 108.06 C23.68 132.72,37.60 154.67,72.18 154.67 C81.50 154.67,90.94 152.66,96.60 149.00 L96.60 128.36 C87.52 132.13,81.73 133.31,74.42 133.31 C54.00 133.31,49.64 120.10,49.64 108.06 C49.64 96.02,54.00 82.81,74.42 82.81 C81.73 82.81,87.52 84.11,96.60 87.88 L96.60 67.23 C90.94 63.57,81.50 61.45,72.18 61.45 C37.60 61.45,23.68 83.40,23.68 108.06"></path>
</svg>